# xmcd CD database file
#
# Track frame offsets:
#	150
#	22564
#	40956
#	58073
#	80611
#	102556
#	119563
#	135034
#	159114
#	187751
#	215956
#	236393
#	254640
#	277026
#
# Disc length: 4031 seconds
#
# Revision: 0
# Processed by: cddbd v1.5.2PL0 Copyright (c) Steve Scherf et al.
# Submitted via: CDex 1.51
#
DISCID=bc0fbd0e
DTITLE=kari bremnes - live
DYEAR=2007
DGENRE=Jazz
TTITLE0=sangen om ka ho Anna dromte om
TTITLE1=togsang
TTITLE2=stjernelause dogn
TTITLE3=per og pal og janus
TTITLE4=fyret
TTITLE5=litt happiness
TTITLE6=hvis du kommer tebake
TTITLE7=sovngjengersken
TTITLE8=riddle beside another riddle
TTITLE9=skrik
TTITLE10=you'd have to be here
TTITLE11=to give you a song
TTITLE12=mitt hjerte hamrer
TTITLE13=hurtigrute
EXTD=YEAR: 2007
EXTT0=
EXTT1=
EXTT2=
EXTT3=
EXTT4=
EXTT5=
EXTT6=
EXTT7=
EXTT8=
EXTT9=
EXTT10=
EXTT11=
EXTT12=
EXTT13=
PLAYORDER=
